<svg width="49" height="40" viewBox="0 0 49 40" fill="none" xmlns="http://www.w3.org/2000/svg">
<path d="M24.5129 4.08166e-05C24.3595 -0.00139238 24.2084 0.0349393 24.0739 0.105545C23.9424 0.176088 23.8325 0.278507 23.7554 0.402522L19.1107 7.95392C18.9595 8.20031 18.8798 8.48093 18.88 8.7667C18.88 9.05195 18.9597 9.3333 19.1107 9.57948L29.2188 26.0148C29.3734 26.2636 29.5938 26.4692 29.8578 26.6107C30.1219 26.7535 30.4201 26.8282 30.7234 26.8275H40.0107C40.1631 26.8273 40.3128 26.7896 40.4456 26.7181C40.5761 26.6467 40.6846 26.5436 40.76 26.4192C40.8371 26.2971 40.8787 26.1574 40.8805 26.0148C40.8801 25.8712 40.8399 25.7303 40.7641 25.6064L25.256 0.412291C25.1807 0.287774 25.0722 0.184618 24.9416 0.113361C24.8107 0.040503 24.6643 0.00145351 24.5129 4.08166e-05ZM16.375 13.1705C16.2239 13.1708 16.0755 13.2085 15.9442 13.28C15.8118 13.3509 15.7012 13.454 15.6237 13.5789L0.119641 38.775C0.042065 38.8981 0.000728362 39.039 9.53755e-06 39.1828C-0.000709286 39.3265 0.0392165 39.4678 0.115558 39.5917C0.193073 39.716 0.303679 39.8185 0.436092 39.8886C0.568468 39.9613 0.71835 39.9997 0.870956 40H10.1603C10.4638 40 10.762 39.9246 11.0259 39.7812C11.288 39.6392 11.5063 39.4337 11.6588 39.1853L21.773 22.75C21.9243 22.5036 22.0039 22.223 22.0037 21.9372C22.0041 21.6502 21.9244 21.3683 21.773 21.1205L17.1283 13.5789C17.0505 13.4547 16.94 13.3523 16.8078 13.2819C16.6751 13.2103 16.5253 13.1727 16.3729 13.1725L16.375 13.1705ZM22.5223 30.4108C22.2175 30.4107 21.9179 30.4861 21.6526 30.6296C21.3908 30.771 21.1725 30.9759 21.0197 31.2236L16.375 38.7711C16.2988 38.8948 16.2586 39.0358 16.2586 39.1794C16.2588 39.3218 16.299 39.4615 16.375 39.5838C16.4505 39.7087 16.5589 39.8124 16.6894 39.8847C16.8222 39.9559 16.972 39.9929 17.1243 39.9922H48.1364C48.2879 39.9925 48.437 39.9555 48.5692 39.8847C48.7005 39.8128 48.8096 39.709 48.8857 39.5838C48.961 39.4613 49.0004 39.3216 49 39.1794C49.0009 39.0353 48.9615 38.8936 48.8857 38.7691L44.243 31.2275C44.0905 30.979 43.8722 30.7734 43.6101 30.6316C43.3463 30.488 43.048 30.4126 42.7445 30.4127L22.5223 30.4108Z" fill="#FAFFFF"/>
</svg>
