<svg width="37" height="37" viewBox="0 0 37 37" fill="none" xmlns="http://www.w3.org/2000/svg">
<path d="M18.708 0.5625C16.3524 0.5625 14.0199 1.03799 11.8436 1.96181C9.66735 2.88563 7.68993 4.2397 6.02428 5.94671C2.66035 9.39416 0.770508 14.0699 0.770508 18.9453C0.770508 27.0705 5.91857 33.9641 13.0398 36.409C13.9366 36.5561 14.2236 35.9862 14.2236 35.4899V32.3832C9.25495 33.4862 8.19663 29.9199 8.19663 29.9199C7.37151 27.7875 6.20557 27.2176 6.20557 27.2176C4.57326 26.0779 6.33113 26.1146 6.33113 26.1146C8.12488 26.2433 9.07557 28.0081 9.07557 28.0081C10.6361 30.8023 13.2729 29.975 14.2954 29.5338C14.4568 28.339 14.9232 27.5301 15.4254 27.0705C11.4433 26.611 7.26388 25.0301 7.26388 18.0262C7.26388 15.9857 7.94551 14.3496 9.11145 13.0444C8.93207 12.5849 8.30426 10.6731 9.29082 8.19138C9.29082 8.19138 10.7976 7.69504 14.2236 10.0664C15.6407 9.662 17.1833 9.45979 18.708 9.45979C20.2327 9.45979 21.7753 9.662 23.1924 10.0664C26.6184 7.69504 28.1252 8.19138 28.1252 8.19138C29.1118 10.6731 28.4839 12.5849 28.3046 13.0444C29.4705 14.3496 30.1521 15.9857 30.1521 18.0262C30.1521 25.0484 25.9548 26.5926 21.9547 27.0522C22.6004 27.622 23.1924 28.7434 23.1924 30.453V35.4899C23.1924 35.9862 23.4794 36.5745 24.3942 36.409C31.5154 33.9457 36.6455 27.0705 36.6455 18.9453C36.6455 16.5313 36.1815 14.1408 35.2801 11.9105C34.3787 9.68022 33.0574 7.65371 31.3917 5.94671C29.7261 4.2397 27.7487 2.88563 25.5724 1.96181C23.3961 1.03799 21.0636 0.5625 18.708 0.5625Z" fill="white"/>
</svg>
