<svg width="42" height="41" viewBox="0 0 42 41" fill="none" xmlns="http://www.w3.org/2000/svg">
<g id="vuesax/bold/instagram">
<g id="vuesax/bold/instagram_2">
<g id="instagram">
<path id="Vector" d="M27.8659 3.41675H13.5501C7.33178 3.41675 3.62469 7.12383 3.62469 13.3422V27.6409C3.62469 33.8763 7.33178 37.5834 13.5501 37.5834H27.8489C34.0672 37.5834 37.7743 33.8763 37.7743 27.658V13.3422C37.7914 7.12383 34.0843 3.41675 27.8659 3.41675ZM20.708 27.1284C17.0522 27.1284 14.0797 24.1559 14.0797 20.5001C14.0797 16.8442 17.0522 13.8717 20.708 13.8717C24.3639 13.8717 27.3364 16.8442 27.3364 20.5001C27.3364 24.1559 24.3639 27.1284 20.708 27.1284ZM30.8214 11.7534C30.7359 11.9584 30.6164 12.1463 30.4626 12.3172C30.2918 12.4709 30.1039 12.5905 29.8989 12.6759C29.6939 12.7613 29.4718 12.8126 29.2497 12.8126C28.7884 12.8126 28.3614 12.6417 28.0368 12.3172C27.883 12.1463 27.7634 11.9584 27.678 11.7534C27.5926 11.5484 27.5414 11.3263 27.5414 11.1042C27.5414 10.8822 27.5926 10.6601 27.678 10.4551C27.7634 10.233 27.883 10.0622 28.0368 9.89133C28.4297 9.49841 29.0276 9.3105 29.5743 9.43008C29.6939 9.44716 29.7964 9.48133 29.8989 9.53258C30.0014 9.56675 30.1039 9.618 30.2064 9.68633C30.2918 9.73758 30.3772 9.823 30.4626 9.89133C30.6164 10.0622 30.7359 10.233 30.8214 10.4551C30.9068 10.6601 30.958 10.8822 30.958 11.1042C30.958 11.3263 30.9068 11.5484 30.8214 11.7534Z" fill="white"/>
</g>
</g>
</g>
</svg>
