<svg width="37" height="37" viewBox="0 0 37 37" fill="none" xmlns="http://www.w3.org/2000/svg">
<path id="Vector" d="M32.6594 0.5625C33.7166 0.5625 34.7305 0.982464 35.478 1.73C36.2255 2.47755 36.6455 3.49143 36.6455 4.54861V32.4514C36.6455 33.5086 36.2255 34.5225 35.478 35.27C34.7305 36.0175 33.7166 36.4375 32.6594 36.4375H4.75662C3.69944 36.4375 2.68555 36.0175 1.93801 35.27C1.19047 34.5225 0.770508 33.5086 0.770508 32.4514V4.54861C0.770508 3.49143 1.19047 2.47755 1.93801 1.73C2.68555 0.982464 3.69944 0.5625 4.75662 0.5625H32.6594ZM31.6629 31.4549V20.8917C31.6629 19.1685 30.9783 17.5158 29.7598 16.2973C28.5413 15.0788 26.8887 14.3943 25.1655 14.3943C23.4714 14.3943 21.4983 15.4307 20.5416 16.9853V14.773H14.981V31.4549H20.5416V21.6291C20.5416 20.0944 21.7773 18.8388 23.312 18.8388C24.052 18.8388 24.7617 19.1328 25.285 19.6561C25.8083 20.1793 26.1022 20.8891 26.1022 21.6291V31.4549H31.6629ZM8.50356 11.6439C9.3916 11.6439 10.2433 11.2911 10.8712 10.6632C11.4991 10.0353 11.8519 9.18359 11.8519 8.29556C11.8519 6.44201 10.3571 4.92729 8.50356 4.92729C7.61024 4.92729 6.75351 5.28216 6.12184 5.91383C5.49017 6.54551 5.1353 7.40224 5.1353 8.29556C5.1353 10.1491 6.65002 11.6439 8.50356 11.6439ZM11.2739 31.4549V14.773H5.75315V31.4549H11.2739Z" fill="white"/>
</svg>
