<svg width="36" height="30" viewBox="0 0 36 30" fill="none" xmlns="http://www.w3.org/2000/svg">
<path id="Vector" d="M35.2288 3.54167C33.9398 4.13958 32.5504 4.5325 31.1107 4.72042C32.5839 3.815 33.7222 2.38 34.2579 0.654583C32.8685 1.50875 31.3283 2.10667 29.7045 2.44833C28.382 0.979167 26.5239 0.125 24.4146 0.125C20.4806 0.125 17.2664 3.405 17.2664 7.45375C17.2664 8.03458 17.3334 8.59833 17.4506 9.12792C11.491 8.82042 6.18432 5.89917 2.6521 1.47458C2.03271 2.55083 1.68116 3.815 1.68116 5.1475C1.68116 7.69292 2.93669 9.94792 4.87857 11.2292C3.69 11.2292 2.58514 10.8875 1.6142 10.375V10.4262C1.6142 13.9796 4.09177 16.9521 7.37288 17.6183C6.31946 17.9125 5.21354 17.9535 4.14199 17.7379C4.59667 19.1942 5.48714 20.4685 6.68823 21.3817C7.88932 22.2948 9.34062 22.8009 10.8381 22.8288C8.29968 24.8795 5.1531 25.988 1.91552 25.9721C1.34635 25.9721 0.77718 25.9379 0.208008 25.8696C3.38868 27.9537 7.172 29.1667 11.2232 29.1667C24.4146 29.1667 31.6631 17.9942 31.6631 8.30792C31.6631 7.98333 31.6631 7.67583 31.6464 7.35125C33.0526 6.32625 34.2579 5.02792 35.2288 3.54167Z" fill="white"/>
</svg>
